<svg width="83.238" height="86.093" viewBox="0 0 83.238 86.093" xmlns="http://www.w3.org/2000/svg"><g id="svgGroup" stroke-linecap="round" fill-rule="evenodd" font-size="9pt" stroke="#000" stroke-width="0.25mm" fill="#000" style="stroke:#000;stroke-width:0.25mm;fill:#000"><path d="M 28.938 27.181 A 11.244 11.244 0 0 0 28.049 26.24 Q 25.234 23.6 22.2 25.033 Q 12.63 30.013 2.376 37.337 Q -1.823 39.583 1.399 42.611 A 19.172 19.172 0 0 0 2.43 43.629 Q 4.975 45.948 6.77 45.54 A 6.089 6.089 0 0 1 6.913 45.478 Q 8.929 44.623 9.212 46.322 Q 3.743 57.943 1.399 65.365 A 15.671 15.671 0 0 0 1.373 65.447 Q 0.166 69.225 2.786 67.791 A 8.285 8.285 0 0 0 3.255 67.513 A 68.835 68.835 0 0 0 5.348 65.874 Q 10.331 61.807 12.044 58.626 A 7.026 7.026 0 0 1 12.367 58.114 Q 13.67 56.249 14.974 57.552 A 2.045 2.045 0 0 1 15.018 57.686 Q 15.266 58.519 15.266 60.677 A 400.569 400.569 0 0 0 15.32 67.444 Q 15.429 73.87 15.761 78.237 A 69.959 69.959 0 0 0 16.145 82.064 A 4.034 4.034 0 0 0 16.235 82.907 Q 16.52 84.243 17.708 85.579 A 1.698 1.698 0 0 0 17.929 85.81 Q 18.539 86.332 19.402 85.892 A 3.111 3.111 0 0 0 19.759 85.677 A 16.655 16.655 0 0 0 19.953 85.48 Q 22.417 82.932 22.417 80.692 A 3.993 3.993 0 0 0 22.298 79.72 A 405.191 405.191 0 0 1 22.192 78.183 Q 21.149 62.662 21.614 51.4 A 16.455 16.455 0 0 1 21.74 50.675 Q 22.231 48.189 23.177 48.275 A 35.068 35.068 0 0 0 24.119 48.993 A 30.228 30.228 0 0 0 26.888 50.814 A 8.792 8.792 0 0 0 27.234 50.91 Q 30.834 51.831 31.673 48.568 A 6.025 6.025 0 0 0 30.67 45.936 Q 29.375 44.028 26.497 42.708 Q 23.47 41.536 23.567 39.681 A 8.275 8.275 0 0 1 24.044 38.604 Q 25.448 35.931 29.329 32.454 A 3.694 3.694 0 0 0 30.023 30.304 Q 30.023 29.347 29.545 28.284 A 8.413 8.413 0 0 0 28.938 27.181 Z M 80.696 48.177 A 10.516 10.516 0 0 0 80.466 47.911 Q 77.572 44.683 75.13 47.689 Q 74.349 48.372 73.763 48.665 A 119.8 119.8 0 0 0 60.09 49.616 A 143.564 143.564 0 0 0 37.141 54.525 A 15.007 15.007 0 0 1 37.019 54.561 Q 34.191 55.383 33.235 54.427 A 5.228 5.228 0 0 0 32.772 53.971 Q 30.301 51.84 28.157 56.576 A 4.462 4.462 0 0 0 28.101 56.766 Q 27.341 59.548 29.134 66.341 A 63.286 63.286 0 0 0 30.055 69.654 Q 31.139 73.165 32.529 76.092 A 32.626 32.626 0 0 0 36.067 81.966 A 12.041 12.041 0 0 0 36.805 82.845 Q 38.085 84.22 39.118 84.22 A 1.523 1.523 0 0 0 39.876 84.017 A 154.128 154.128 0 0 1 44.717 83.227 Q 52.251 82.126 58.067 82.126 A 56.722 56.722 0 0 1 60.091 82.161 Q 60.913 82.311 61.736 83.434 A 8.671 8.671 0 0 1 62.239 84.212 A 4.681 4.681 0 0 0 62.547 84.675 Q 63.284 85.643 64.218 85.623 A 1.93 1.93 0 0 0 64.583 85.579 A 17.323 17.323 0 0 0 65.419 85.259 A 19.745 19.745 0 0 0 67.903 84.017 A 25.079 25.079 0 0 0 70.746 82.787 A 16.983 16.983 0 0 0 79.915 71.615 A 62.812 62.812 0 0 0 80.569 69.857 Q 83.238 62.336 83.238 56.002 A 29.8 29.8 0 0 0 83.235 55.599 Q 83.061 52.584 82.199 50.533 A 7.641 7.641 0 0 0 80.696 48.177 Z M 63.534 18.191 A 6.131 6.131 0 0 0 62.337 18.49 Q 60.78 19.462 59.569 19.789 A 4.39 4.39 0 0 1 58.431 19.954 A 20.807 20.807 0 0 0 55.31 19.716 Q 50.508 19.716 45.931 22.005 A 6.19 6.19 0 0 1 45.731 22.125 Q 44.029 23.102 42.536 22.459 A 3.946 3.946 0 0 1 41.634 21.908 A 4.42 4.42 0 0 0 41.469 21.826 Q 39.1 20.717 36.458 22.982 A 10.11 10.11 0 0 0 34.674 28.824 Q 34.674 30.192 34.993 31.673 A 35.624 35.624 0 0 0 37.443 40.121 A 49.168 49.168 0 0 0 41.243 47.298 Q 43.196 49.837 46.028 47.689 A 9.822 9.822 0 0 1 46.135 47.549 Q 46.928 46.53 47.722 46.083 A 2.502 2.502 0 0 1 48.958 45.736 A 40.424 40.424 0 0 0 57.161 43.187 A 54.593 54.593 0 0 0 64.583 39.29 Q 67.22 37.24 66.438 35.579 Q 66.365 34.41 67.331 32.803 A 13.425 13.425 0 0 1 68.099 31.673 A 20.168 20.168 0 0 0 69.349 29.567 Q 71.244 25.841 70.247 23.079 Q 67.444 17.644 63.534 18.191 Z M 68.88 52.669 Q 64.974 53.255 61.067 54.525 Q 55.599 56.087 57.552 60.482 A 4.394 4.394 0 0 0 57.993 61.001 Q 58.85 61.853 59.767 61.566 A 1.746 1.746 0 0 0 59.798 61.556 A 6.254 6.254 0 0 1 60.434 61.461 Q 63.535 61.168 64.371 64.624 A 9.061 9.061 0 0 1 64.485 65.169 A 7.597 7.597 0 0 1 63.907 66.29 Q 62.972 67.757 61.653 67.904 A 9.795 9.795 0 0 0 59.972 68.273 Q 56.9 69.268 57.229 72.173 A 5.648 5.648 0 0 0 57.259 72.396 Q 57.259 73.794 57.609 74.491 A 1.404 1.404 0 0 0 57.942 74.935 Q 58.821 75.423 61.36 75.423 Q 65.243 77.272 66.763 74.92 A 3.944 3.944 0 0 0 66.927 74.642 A 64.882 64.882 0 0 0 69.513 67.659 Q 70.755 63.649 71.712 59.017 Q 73.372 54.915 70.345 52.865 A 2.017 2.017 0 0 0 69.798 52.687 Q 69.438 52.622 69.002 52.657 A 4.223 4.223 0 0 0 68.88 52.669 Z M 59.957 0.063 A 6.615 6.615 0 0 0 58.138 0.618 Q 50.52 3.743 44.173 4.525 Q 43.162 4.727 42.436 5.13 A 3.411 3.411 0 0 0 40.95 6.673 A 0.564 0.564 0 0 0 40.941 6.691 Q 40.638 7.356 41.512 9.853 A 35.12 35.12 0 0 0 41.927 10.97 A 13.089 13.089 0 0 0 43.491 13.007 A 8.367 8.367 0 0 0 49.153 15.755 A 15.919 15.919 0 0 0 49.741 15.744 Q 56.301 15.502 65.364 9.896 A 9.953 9.953 0 0 0 66.387 8.984 Q 68.911 6.374 67.092 3.555 A 7.944 7.944 0 0 0 66.243 2.474 Q 63.071 -0.396 59.957 0.063 Z M 46.516 58.529 A 37.203 37.203 0 0 0 38.704 60.189 Q 34.392 61.626 36.944 66.918 A 15.803 15.803 0 0 0 37.044 67.122 Q 38.02 71.029 39.778 74.935 A 6.769 6.769 0 0 0 40.711 76.098 Q 42.626 77.975 45.345 76.888 A 12.561 12.561 0 0 0 45.793 76.896 Q 47.738 76.896 49.102 76.262 A 5.218 5.218 0 0 0 49.739 75.911 Q 50.675 75.069 50.535 73.599 A 4.453 4.453 0 0 0 50.52 73.47 A 4.093 4.093 0 0 0 50.194 72.45 Q 49.331 70.684 46.822 71.27 A 7.292 7.292 0 0 0 46.614 71.322 Q 44.563 71.768 42.837 69.932 A 7.652 7.652 0 0 1 42.513 69.564 A 1.897 1.897 0 0 1 42.252 68.609 Q 42.252 67.62 43.275 66.46 A 7.347 7.347 0 0 1 43.294 66.439 Q 44.456 65.664 47.54 64.601 A 60.525 60.525 0 0 1 47.591 64.583 A 6.332 6.332 0 0 0 48.731 64.013 Q 50.973 62.562 49.785 59.804 A 7.995 7.995 0 0 0 49.446 59.115 A 2.492 2.492 0 0 0 47.669 58.377 Q 47.37 58.37 47.043 58.419 A 4.923 4.923 0 0 0 46.516 58.529 Z M 26.106 5.794 A 23.385 23.385 0 0 0 24.708 5.134 Q 17.262 1.927 12.434 6.576 A 3.334 3.334 0 0 0 11.96 7.063 Q 11.25 7.969 11.556 9.115 A 7.589 7.589 0 0 0 12.137 10.027 Q 13.858 12.364 18.099 14.974 A 9.165 9.165 0 0 0 22.977 16.37 Q 24.224 16.37 25.547 16.049 A 14.651 14.651 0 0 0 27.864 15.267 Q 31.618 11.513 27.676 7.261 A 16.19 16.19 0 0 0 26.106 5.794 Z M 55.794 26.497 L 53.841 27.572 Q 51.857 28.821 48.822 29.628 A 32.523 32.523 0 0 1 46.712 30.111 A 2.847 2.847 0 0 0 45.307 32.048 Q 44.928 33.671 45.735 36.361 Q 45.638 39.193 47.981 39.681 A 15.457 15.457 0 0 0 52.956 38.339 A 12.823 12.823 0 0 0 58.626 33.04 Q 59.895 30.599 60.091 27.865 Q 60.181 25.7 59.855 25.201 A 0.444 0.444 0 0 0 59.798 25.13 A 0.215 0.215 0 0 0 59.709 25.095 Q 59.184 24.993 56.632 26.119 A 61.566 61.566 0 0 0 55.794 26.497 Z" id="0" vector-effect="non-scaling-stroke"/></g></svg>
